name analog
datacolumns 19
datarows 66
range 0.0 0.0325
endheader
time	ground_force_vx	ground_force_vy	ground_force_vz	ground_force_px	ground_force_py	ground_force_pz	l_ground_force_vx	l_ground_force_vy	l_ground_force_vz	l_ground_force_px	l_ground_force_py	l_ground_force_pz	ground_torque_x	ground_torque_y	ground_torque_z	l_ground_torque_x	l_ground_torque_y	l_ground_torque_z
0.0	-0.0	-0.0	-0.0	12.9753999710083	40.25851058959961	-756.5340576171875	-5.909477233886719	-20.911909103393555	-177.85255432128906	-0.0	-0.0	-0.0	-0.0	-0.0	-0.0	44092.3359375	16883.82421875	-4653.1123046875
0.0005	-0.0	-0.0	-0.0	13.476003646850586	40.4442253112793	-762.8167724609375	-5.500068664550781	-19.519092559814453	-172.77674865722656	-0.0	-0.0	-0.0	-0.0	-0.0	-0.0	42722.1171875	16327.720703125	-4419.6025390625
0.001	-0.0	-0.0	-0.0	13.517833709716797	41.15718460083008	-769.1744995117188	-5.370107650756836	-18.33701705932617	-168.0514678955078	-0.0	-0.0	-0.0	-0.0	-0.0	-0.0	41388.58984375	16011.642578125	-4143.16162109375
0.0015	-0.0	-0.0	-0.0	14.08251953125	41.50081634521485	-774.6077270507812	-4.531856060028076	-17.630523681640625	-160.12692260742188	-0.0	-0.0	-0.0	-0.0	-0.0	-0.0	40186.3984375	15612.92578125	-4078.624755859375
0.002	-0.0	-0.0	-0.0	14.282488822937012	42.02311325073242	-779.68701171875	-3.90835952758789	-16.347387313842773	-154.4584503173828	-0.0	-0.0	-0.0	-0.0	-0.0	-0.0	38765.9296875	15091.658203125	-3867.6025390625
0.0025	-0.0	-0.0	-0.0	14.039907455444336	41.71302795410156	-783.5360107421875	-4.025822162628174	-15.565561294555664	-146.6436767578125	-0.0	-0.0	-0.0	-0.0	-0.0	-0.0	36994.7109375	14537.611328125	-3484.5439453125
0.003	-0.0	-0.0	-0.0	13.637017250061035	42.09391021728516	-786.970458984375	-3.235886812210083	-14.791834831237791	-140.2259979248047	-0.0	-0.0	-0.0	-0.0	-0.0	-0.0	35485.50390625	13721.130859375	-3151.822265625
0.0035	-0.0	-0.0	-0.0	13.707097053527832	42.14662551879883	-790.9415893554688	-2.75003433227539	-13.71968936920166	-134.4577178955078	-0.0	-0.0	-0.0	-0.0	-0.0	-0.0	33633.19140625	13173.201171875	-3057.91845703125
0.004	-0.0	-0.0	-0.0	13.122179985046388	41.89128875732422	-795.3541259765625	-2.125917673110962	-12.486868858337402	-126.42880249023438	-0.0	-0.0	-0.0	-0.0	-0.0	-0.0	32049.8046875	12501.83203125	-2796.15478515625
0.0045000000000000005	-0.0	-0.0	-0.0	12.46749496459961	41.512813568115234	-799.957763671875	-1.8387579917907717	-11.725364685058594	-119.0131378173828	-0.0	-0.0	-0.0	-0.0	-0.0	-0.0	30242.671875	11845.935546875	-2432.6962890625
0.005	-0.0	-0.0	-0.0	12.021358489990234	41.95741653442383	-802.2501831054688	-1.220353126525879	-10.58669662475586	-111.46437072753906	-0.0	-0.0	-0.0	-0.0	-0.0	-0.0	28868.34375	11354.74609375	-2361.460205078125
0.0055	-0.0	-0.0	-0.0	12.143576622009276	41.35618209838867	-806.4423828125	-0.8653504252433777	-9.670387268066406	-103.26324462890624	-0.0	-0.0	-0.0	-0.0	-0.0	-0.0	26808.259765625	10398.8916015625	-2019.664306640625
0.006	-0.0	-0.0	-0.0	11.262828826904297	41.23396301269531	-811.3425903320312	-0.4319597482681274	-8.567203521728516	-95.66754150390624	-0.0	-0.0	-0.0	-0.0	-0.0	-0.0	24943.234375	9773.34765625	-1708.390869140625
0.006500000000000001	-0.0	-0.0	-0.0	11.10700511932373	41.2898063659668	-814.0341186523438	0.199407696723938	-7.849303722381592	-87.72358703613281	-0.0	-0.0	-0.0	-0.0	-0.0	-0.0	23024.630859375	9035.083984375	-1429.5299072265625
0.007	-0.0	-0.0	-0.0	10.493528366088867	40.66489028930664	-818.8499145507812	0.7541529536247253	-6.469508171081543	-80.34796905517578	-0.0	-0.0	-0.0	-0.0	-0.0	-0.0	20904.974609375	8184.38916015625	-1250.6580810546875
0.0075	-0.0	-0.0	-0.0	10.727933883666992	40.687294006347656	-822.3345947265625	0.9537267088890076	-5.895443916320801	-69.917724609375	-0.0	-0.0	-0.0	-0.0	-0.0	-0.0	18769.7578125	7465.6123046875	-1046.486083984375
0.008	-0.0	-0.0	-0.0	9.84634494781494	40.28482818603516	-826.5230712890625	1.097701907157898	-4.912987232208252	-60.49125671386719	-0.0	-0.0	-0.0	-0.0	-0.0	-0.0	16646.171875	6482.587890625	-823.5814208984375
0.0085	-0.0	-0.0	-0.0	9.479230880737305	40.25382614135742	-831.6885375976562	1.2644004821777344	-3.941490650177002	-52.06990814208984	-0.0	-0.0	-0.0	-0.0	-0.0	-0.0	14424.01171875	5631.94189453125	-545.1331787109375
0.009000000000000001	-0.0	-0.0	-0.0	9.879326820373535	40.49826049804688	-837.3381958007812	1.784713625907898	-3.1571080684661865	-46.094215393066406	-0.0	-0.0	-0.0	-0.0	-0.0	-0.0	12709.2080078125	4953.4912109375	-392.7128601074219
0.0095	-0.0	-0.0	-0.0	9.690940856933594	40.4981803894043	-843.8387451171875	1.8196780681610107	-2.3620541095733643	-37.6189079284668	-0.0	-0.0	-0.0	-0.0	-0.0	-0.0	10786.1279296875	3926.457763671875	-255.2506866455078
0.01	-0.0	-0.0	-0.0	9.244930267333984	39.86455154418945	-849.3438720703125	2.4839019775390625	-2.1424732208251958	-31.693483352661133	-0.0	-0.0	-0.0	-0.0	-0.0	-0.0	9324.892578125	3482.8095703125	179.20660400390625
0.0105	-0.0	-0.0	-0.0	8.752089500427246	39.32046890258789	-855.3464965820312	2.62846040725708	-1.4392427206039429	-26.018144607543945	-0.0	-0.0	-0.0	-0.0	-0.0	-0.0	7780.5341796875	2894.639892578125	264.09783935546875
0.011	-0.0	-0.0	-0.0	8.789763450622559	38.682594299316406	-860.8094482421875	2.9468793869018555	-1.1615071296691897	-22.398380279541016	-0.0	-0.0	-0.0	-0.0	-0.0	-0.0	6674.64404296875	2510.67333984375	546.7239990234375
0.0115	-0.0	-0.0	-0.0	8.282054901123047	37.39663314819336	-867.87158203125	-0.0	-0.0	-0.0	-0.0	-0.0	-0.0	-0.0	-0.0	-0.0	-0.0	-0.0	-0.0
0.012	-0.0	-0.0	-0.0	7.330184936523437	36.42166519165039	-872.7779541015625	-0.0	-0.0	-0.0	-0.0	-0.0	-0.0	-0.0	-0.0	-0.0	-0.0	-0.0	-0.0
0.0125	-0.0	-0.0	-0.0	6.991058349609375	35.56303405761719	-879.9004516601562	-0.0	-0.0	-0.0	-0.0	-0.0	-0.0	-0.0	-0.0	-0.0	-0.0	-0.0	-0.0
0.013000000000000001	-0.0	-0.0	-0.0	7.104244232177734	35.83899688720703	-886.6786499023438	-0.0	-0.0	-0.0	-0.0	-0.0	-0.0	-0.0	-0.0	-0.0	-0.0	-0.0	-0.0
0.0135	-0.0	-0.0	-0.0	6.0821533203125	35.206512451171875	-893.2548217773438	-0.0	-0.0	-0.0	-0.0	-0.0	-0.0	-0.0	-0.0	-0.0	-0.0	-0.0	-0.0
0.014	-0.0	-0.0	-0.0	5.230945587158203	33.83710861206055	-898.9714965820312	-0.0	-0.0	-0.0	-0.0	-0.0	-0.0	-0.0	-0.0	-0.0	-0.0	-0.0	-0.0
0.0145	-0.0	-0.0	-0.0	4.61496639251709	32.74323272705078	-903.49755859375	-0.0	-0.0	-0.0	-0.0	-0.0	-0.0	-0.0	-0.0	-0.0	-0.0	-0.0	-0.0
0.015	-0.0	-0.0	-0.0	3.5438766479492188	32.151554107666016	-909.085205078125	-0.0	-0.0	-0.0	-0.0	-0.0	-0.0	-0.0	-0.0	-0.0	-0.0	-0.0	-0.0
0.0155	-0.0	-0.0	-0.0	2.95325231552124	31.97484970092773	-913.8043212890624	-0.0	-0.0	-0.0	-0.0	-0.0	-0.0	-0.0	-0.0	-0.0	-0.0	-0.0	-0.0
0.016	-0.0	-0.0	-0.0	1.920473575592041	31.569515228271484	-916.884521484375	-0.0	-0.0	-0.0	-0.0	-0.0	-0.0	-0.0	-0.0	-0.0	-0.0	-0.0	-0.0
0.0165	-0.0	-0.0	-0.0	1.7592984437942505	31.05673217773437	-920.71142578125	-0.0	-0.0	-0.0	-0.0	-0.0	-0.0	-0.0	-0.0	-0.0	-0.0	-0.0	-0.0
0.017	-0.0	-0.0	-0.0	0.5994776487350464	30.093997955322266	-922.1809692382812	-0.0	-0.0	-0.0	-0.0	-0.0	-0.0	-0.0	-0.0	-0.0	-0.0	-0.0	-0.0
0.0175	-0.0	-0.0	-0.0	-0.3888691067695617	29.024513244628903	-924.923828125	-0.0	-0.0	-0.0	-0.0	-0.0	-0.0	-0.0	-0.0	-0.0	-0.0	-0.0	-0.0
0.018000000000000002	-0.0	-0.0	-0.0	-0.8096389174461365	27.980207443237305	-926.797607421875	-0.0	-0.0	-0.0	-0.0	-0.0	-0.0	-0.0	-0.0	-0.0	-0.0	-0.0	-0.0
0.0185	-0.0	-0.0	-0.0	-1.0132272243499756	26.917381286621094	-930.6780395507812	-0.0	-0.0	-0.0	-0.0	-0.0	-0.0	-0.0	-0.0	-0.0	-0.0	-0.0	-0.0
0.019	-0.0	-0.0	-0.0	-1.57394540309906	26.21089172363281	-931.5125122070312	-0.0	-0.0	-0.0	-0.0	-0.0	-0.0	-0.0	-0.0	-0.0	-0.0	-0.0	-0.0
0.0195	-0.0	-0.0	-0.0	-1.497166395187378	25.25567626953125	-934.23779296875	-0.0	-0.0	-0.0	-0.0	-0.0	-0.0	-0.0	-0.0	-0.0	-0.0	-0.0	-0.0
0.02	-0.0	-0.0	-0.0	-2.014166116714477	24.726762771606445	-933.4074096679688	-0.0	-0.0	-0.0	-0.0	-0.0	-0.0	-0.0	-0.0	-0.0	-0.0	-0.0	-0.0
0.0205	-0.0	-0.0	-0.0	-2.1036219596862797	24.01923942565918	-936.5078735351562	-0.0	-0.0	-0.0	-0.0	-0.0	-0.0	-0.0	-0.0	-0.0	-0.0	-0.0	-0.0
0.021	-0.0	-0.0	-0.0	-2.29349946975708	23.43001747131348	-936.5079956054688	-0.0	-0.0	-0.0	-0.0	-0.0	-0.0	-0.0	-0.0	-0.0	-0.0	-0.0	-0.0
0.021500000000000002	-0.0	-0.0	-0.0	-2.624046802520752	23.28374671936035	-935.9268798828124	-0.0	-0.0	-0.0	-0.0	-0.0	-0.0	-0.0	-0.0	-0.0	-0.0	-0.0	-0.0
0.022	-0.0	-0.0	-0.0	-3.0383777618408203	22.75448608398437	-935.6776123046876	-0.0	-0.0	-0.0	-0.0	-0.0	-0.0	-0.0	-0.0	-0.0	-0.0	-0.0	-0.0
0.0225	-0.0	-0.0	-0.0	-2.917557001113892	22.52362632751465	-932.87255859375	-0.0	-0.0	-0.0	-0.0	-0.0	-0.0	-0.0	-0.0	-0.0	-0.0	-0.0	-0.0
0.023	-0.0	-0.0	-0.0	-3.059657573699951	22.7692813873291	-931.5453491210938	-0.0	-0.0	-0.0	-0.0	-0.0	-0.0	-0.0	-0.0	-0.0	-0.0	-0.0	-0.0
0.0235	-0.0	-0.0	-0.0	-3.505794048309326	23.272483825683597	-928.7392578125	-0.0	-0.0	-0.0	-0.0	-0.0	-0.0	-0.0	-0.0	-0.0	-0.0	-0.0	-0.0
0.024	-0.0	-0.0	-0.0	-3.916285991668701	23.294239044189453	-926.1969604492188	-0.0	-0.0	-0.0	-0.0	-0.0	-0.0	-0.0	-0.0	-0.0	-0.0	-0.0	-0.0
0.0245	-0.0	-0.0	-0.0	-3.559810876846313	23.21364974975586	-923.7952880859376	-0.0	-0.0	-0.0	-0.0	-0.0	-0.0	-0.0	-0.0	-0.0	-0.0	-0.0	-0.0
0.025	-0.0	-0.0	-0.0	-3.6223206520080566	23.1117000579834	-922.57958984375	-0.0	-0.0	-0.0	-0.0	-0.0	-0.0	-0.0	-0.0	-0.0	-0.0	-0.0	-0.0
0.025500000000000002	-0.0	-0.0	-0.0	-4.36737585067749	23.70868682861328	-921.9986572265624	-0.0	-0.0	-0.0	-0.0	-0.0	-0.0	-0.0	-0.0	-0.0	-0.0	-0.0	-0.0
0.026000000000000002	-0.0	-0.0	-0.0	-4.161885738372803	23.448917388916016	-918.2980346679688	-0.0	-0.0	-0.0	-0.0	-0.0	-0.0	-0.0	-0.0	-0.0	-0.0	-0.0	-0.0
0.0265	-0.0	-0.0	-0.0	-4.577077388763428	24.123432159423828	-917.792236328125	-0.0	-0.0	-0.0	-0.0	-0.0	-0.0	-0.0	-0.0	-0.0	-0.0	-0.0	-0.0
0.027	-0.0	-0.0	-0.0	-5.115865707397461	23.67107391357422	-916.9638671875	-0.0	-0.0	-0.0	-0.0	-0.0	-0.0	-0.0	-0.0	-0.0	-0.0	-0.0	-0.0
0.0275	-0.0	-0.0	-0.0	-5.441841125488281	23.29383087158203	-914.395751953125	-0.0	-0.0	-0.0	-0.0	-0.0	-0.0	-0.0	-0.0	-0.0	-0.0	-0.0	-0.0
0.028	-0.0	-0.0	-0.0	-6.063292503356934	23.087793350219727	-913.6644897460938	-0.0	-0.0	-0.0	-0.0	-0.0	-0.0	-0.0	-0.0	-0.0	-0.0	-0.0	-0.0
0.0285	-0.0	-0.0	-0.0	-6.4538397789001465	22.84520149230957	-911.7891235351562	-0.0	-0.0	-0.0	-0.0	-0.0	-0.0	-0.0	-0.0	-0.0	-0.0	-0.0	-0.0
0.029	-0.0	-0.0	-0.0	-6.607006549835205	22.753442764282227	-910.8402709960938	-0.0	-0.0	-0.0	-0.0	-0.0	-0.0	-0.0	-0.0	-0.0	-0.0	-0.0	-0.0
0.029500000000000002	-0.0	-0.0	-0.0	-7.460647583007812	22.221532821655277	-908.6012573242188	-0.0	-0.0	-0.0	-0.0	-0.0	-0.0	-0.0	-0.0	-0.0	-0.0	-0.0	-0.0
0.03	-0.0	-0.0	-0.0	-7.845828056335449	22.13483238220215	-907.9048461914062	-0.0	-0.0	-0.0	-0.0	-0.0	-0.0	-0.0	-0.0	-0.0	-0.0	-0.0	-0.0
0.0305	-0.0	-0.0	-0.0	-8.858031272888184	21.81290626525879	-907.3192138671876	-0.0	-0.0	-0.0	-0.0	-0.0	-0.0	-0.0	-0.0	-0.0	-0.0	-0.0	-0.0
0.031	-0.0	-0.0	-0.0	-8.653419494628906	21.780092239379883	-905.3204345703124	-0.0	-0.0	-0.0	-0.0	-0.0	-0.0	-0.0	-0.0	-0.0	-0.0	-0.0	-0.0
0.0315	-0.0	-0.0	-0.0	-9.15834617614746	21.36278343200684	-904.8470458984376	-0.0	-0.0	-0.0	-0.0	-0.0	-0.0	-0.0	-0.0	-0.0	-0.0	-0.0	-0.0
0.032	-0.0	-0.0	-0.0	-9.454755783081056	21.241708755493164	-903.20703125	-0.0	-0.0	-0.0	-0.0	-0.0	-0.0	-0.0	-0.0	-0.0	-0.0	-0.0	-0.0
0.0325	-0.0	-0.0	-0.0	-10.020398139953612	21.00460624694824	-902.7279052734376	-0.0	-0.0	-0.0	-0.0	-0.0	-0.0	-0.0	-0.0	-0.0	-0.0	-0.0	-0.0
